<?xml version="1.0" encoding="UTF-8"?>
<svg xmlns="http://www.w3.org/2000/svg" xmlns:xlink="http://www.w3.org/1999/xlink" width="727pt" height="762pt" viewBox="0 0 727 762" version="1.1">
<g id="surface1">
<path style=" stroke:none;fill-rule:nonzero;fill:rgb(94.499207%,35.299683%,30.599976%);fill-opacity:1;" d="M 466.632813 226.238281 C 466.007813 169.453125 419.46875 123.933594 362.6875 124.558594 C 305.902344 125.183594 260.378906 171.722656 261.007813 228.503906 C 261.632813 285.289063 308.171875 330.8125 364.953125 330.183594 C 421.734375 329.558594 467.261719 283.019531 466.632813 226.238281 Z M 489.246094 225.988281 C 490.011719 295.257813 434.476563 352.035156 365.203125 352.800781 C 295.933594 353.5625 239.15625 298.023438 238.394531 228.753906 C 237.628906 159.484375 293.164063 102.707031 362.4375 101.941406 C 431.707031 101.179688 488.484375 156.71875 489.246094 225.988281 Z M 384.699219 142.160156 C 372.925781 142.289063 366.761719 146.609375 364.292969 148.929688 C 363.914063 149.285156 363.4375 149.464844 362.960938 149.46875 C 362.484375 149.472656 362.007813 149.304688 361.617188 148.960938 C 359.097656 146.691406 352.84375 142.511719 341.066406 142.640625 C 326.160156 142.804688 310.703125 152.695313 310.925781 172.664063 C 311.152344 193.46875 336.898438 208.972656 349.675781 215.796875 C 350.511719 216.242188 351.488281 216.023438 352.167969 215.359375 C 354.109375 213.472656 356.5 212.054688 359.175781 211.285156 C 360.292969 210.964844 360.996094 209.917969 360.78125 208.777344 C 359.746094 203.277344 356.828125 196.730469 355.40625 193.761719 C 354.96875 192.851563 355.355469 191.824219 356.214844 191.292969 C 359.710938 189.125 361.5 186.207031 362.40625 183.988281 C 362.578125 183.574219 362.957031 183.363281 363.335938 183.359375 C 363.714844 183.355469 364.097656 183.558594 364.277344 183.96875 C 365.230469 186.164063 367.089844 189.042969 370.628906 191.132813 C 371.496094 191.648438 371.910156 192.664063 371.492188 193.585938 C 370.132813 196.582031 367.359375 203.191406 366.449219 208.71875 C 366.257813 209.859375 366.988281 210.890625 368.109375 211.1875 C 370.804688 211.898438 373.222656 213.261719 375.207031 215.105469 C 375.902344 215.753906 376.878906 215.949219 377.707031 215.484375 C 390.328125 208.382813 415.726563 192.316406 415.496094 171.511719 C 415.277344 151.539063 399.605469 141.996094 384.699219 142.160156 Z M 279.585938 251.898438 C 285.582031 262.03125 292.402344 265.207031 295.648438 266.1875 C 296.144531 266.335938 296.539063 266.660156 296.78125 267.070313 C 297.023438 267.480469 297.117188 267.980469 297.011719 268.488281 C 296.308594 271.804688 295.816406 279.3125 301.816406 289.441406 C 309.410156 302.269531 325.703125 310.714844 342.890625 300.535156 C 360.789063 289.9375 361.34375 259.886719 360.863281 245.410156 C 360.835938 244.464844 360.15625 243.730469 359.242188 243.472656 C 356.636719 242.734375 354.214844 241.371094 352.207031 239.441406 C 351.371094 238.636719 350.117188 238.546875 349.234375 239.300781 C 344.988281 242.949219 340.777344 248.75 338.917969 251.464844 C 338.347656 252.300781 337.265625 252.476563 336.375 252 C 332.75 250.058594 329.328125 249.964844 326.957031 250.289063 C 326.511719 250.347656 326.136719 250.128906 325.945313 249.800781 C 325.75 249.476563 325.738281 249.042969 326.003906 248.679688 C 327.425781 246.753906 328.992188 243.710938 329.03125 239.597656 C 329.042969 238.585938 329.71875 237.722656 330.722656 237.625 C 333.996094 237.300781 341.109375 236.398438 346.347656 234.425781 C 347.433594 234.015625 347.960938 232.871094 347.65625 231.753906 C 346.925781 229.0625 346.894531 226.285156 347.503906 223.644531 C 347.71875 222.722656 347.398438 221.773438 346.582031 221.289063 C 334.121094 213.910156 307.507813 199.949219 289.605469 210.550781 C 272.417969 220.726563 271.988281 239.070313 279.585938 251.898438 Z M 427.175781 288.0625 C 432.953125 277.800781 432.292969 270.304688 431.519531 267.003906 C 431.398438 266.5 431.484375 265.996094 431.71875 265.582031 C 431.949219 265.167969 432.335938 264.835938 432.828125 264.675781 C 436.054688 263.625 442.800781 260.296875 448.574219 250.035156 C 455.886719 237.042969 455.050781 218.714844 437.648438 208.917969 C 419.515625 198.714844 393.214844 213.261719 380.917969 220.914063 C 380.113281 221.414063 379.816406 222.367188 380.050781 223.289063 C 380.714844 225.914063 380.746094 228.691406 380.074219 231.398438 C 379.796875 232.523438 380.347656 233.65625 381.441406 234.039063 C 386.726563 235.894531 393.855469 236.640625 397.136719 236.890625 C 398.144531 236.96875 398.835938 237.820313 398.867188 238.828125 C 399 242.9375 400.632813 245.949219 402.097656 247.839844 C 402.371094 248.195313 402.367188 248.632813 402.179688 248.960938 C 401.996094 249.292969 401.625 249.519531 401.179688 249.472656 C 398.800781 249.199219 395.382813 249.367188 391.800781 251.390625 C 390.921875 251.886719 389.835938 251.734375 389.246094 250.910156 C 387.328125 248.238281 382.992188 242.53125 378.664063 238.976563 C 377.765625 238.242188 376.511719 238.359375 375.695313 239.183594 C 373.730469 241.160156 371.339844 242.574219 368.75 243.367188 C 367.84375 243.644531 367.183594 244.394531 367.171875 245.34375 C 367.011719 259.824219 368.226563 289.855469 386.359375 300.058594 C 403.765625 309.851563 419.867188 301.054688 427.175781 288.0625 Z M 373.921875 227.261719 C 373.980469 232.839844 369.507813 237.410156 363.933594 237.472656 C 358.355469 237.535156 353.78125 233.0625 353.71875 227.484375 C 353.660156 221.90625 358.132813 217.335938 363.710938 217.273438 C 369.285156 217.210938 373.859375 221.683594 373.921875 227.261719 "/>
<path style=" stroke:none;fill-rule:nonzero;fill:rgb(34.498596%,34.899902%,35.699463%);fill-opacity:1;" d="M 153.199219 518.855469 C 123.808594 518.855469 101.640625 497.183594 101.640625 468.445313 C 101.640625 439.703125 123.808594 418.03125 153.199219 418.03125 C 165.894531 418.03125 178.953125 421.441406 188.320313 427.179688 L 185.9375 449.945313 L 169.472656 449.945313 C 168.523438 447.125 167.757813 444.316406 167.074219 441.183594 L 166.921875 440.46875 L 166.222656 440.246094 C 162.523438 439.0625 158.773438 438.460938 155.066406 438.460938 C 137.328125 438.460938 124.941406 450.789063 124.941406 468.445313 C 124.941406 486.097656 137.328125 498.425781 155.066406 498.425781 C 159.820313 498.425781 163.609375 497.683594 167.355469 496.019531 L 168.109375 495.683594 L 168.109375 481.601563 L 167.433594 481.246094 C 165.203125 480.074219 162.980469 478.59375 160.644531 476.734375 L 160.644531 464.976563 L 188.539063 464.976563 L 188.539063 505.980469 C 181.410156 513.347656 166.347656 518.855469 153.199219 518.855469 "/>
<path style=" stroke:none;fill-rule:nonzero;fill:rgb(34.498596%,34.899902%,35.699463%);fill-opacity:1;" d="M 241.972656 461.675781 L 263.195313 461.675781 C 271.121094 461.675781 277.101563 456.375 277.101563 449.351563 C 277.101563 442.324219 271.121094 437.027344 263.195313 437.027344 L 241.972656 437.027344 Z M 287.746094 518.136719 C 276.628906 518.136719 270.476563 513.855469 262.417969 500.519531 L 249.988281 479.953125 L 241.972656 479.953125 L 241.972656 517.421875 L 220.105469 517.421875 L 220.105469 439.519531 L 219.402344 439.171875 C 216.53125 437.734375 213.875 436.03125 211.492188 434.105469 L 211.492188 419.441406 L 225.035156 419.179688 C 233.285156 418.890625 246.984375 418.75 266.929688 418.75 C 286.011719 418.75 300.402344 431.90625 300.402344 449.351563 C 300.402344 463.371094 291.191406 474.890625 276.9375 478.699219 L 275.265625 479.148438 L 281.21875 488.507813 C 287.152344 497.851563 289.285156 499.144531 298.800781 499.144531 C 299.886719 499.144531 301.394531 499.066406 302.78125 498.972656 L 300.25 517.332031 C 297.074219 517.917969 293.542969 518.136719 287.746094 518.136719 "/>
<path style=" stroke:none;fill-rule:nonzero;fill:rgb(34.498596%,34.899902%,35.699463%);fill-opacity:1;" d="M 366.195313 518.855469 C 341.828125 518.855469 326.691406 503.941406 326.691406 479.929688 L 326.691406 439.523438 L 325.992188 439.171875 C 323.121094 437.734375 320.460938 436.03125 318.078125 434.105469 L 318.078125 419.46875 L 348.558594 419.46875 L 348.558594 479.929688 C 348.558594 491.511719 355.152344 498.425781 366.195313 498.425781 C 377.238281 498.425781 383.832031 491.511719 383.832031 479.929688 L 383.832031 419.46875 L 405.695313 419.46875 L 405.695313 479.929688 C 405.695313 503.941406 390.5625 518.855469 366.195313 518.855469 "/>
<path style=" stroke:none;fill-rule:nonzero;fill:rgb(34.498596%,34.899902%,35.699463%);fill-opacity:1;" d="M 454.980469 465.265625 L 474.769531 465.265625 C 481.714844 465.265625 486.949219 459.65625 486.949219 452.222656 C 486.949219 444.785156 481.714844 439.179688 474.769531 439.179688 L 454.980469 439.179688 Z M 433.113281 517.421875 L 433.113281 439.519531 L 432.410156 439.171875 C 429.539063 437.734375 426.882813 436.03125 424.5 434.105469 L 424.5 419.445313 L 439.1875 419.179688 C 447.917969 418.898438 461.902344 418.75 479.648438 418.75 C 497.097656 418.75 510.25 433.140625 510.25 452.222656 C 510.25 471.304688 497.097656 485.695313 479.648438 485.695313 L 454.980469 485.695313 L 454.980469 517.421875 L 433.113281 517.421875 "/>
<path style=" stroke:none;fill-rule:nonzero;fill:rgb(34.498596%,34.899902%,35.699463%);fill-opacity:1;" d="M 576.019531 438.460938 C 560.808594 438.460938 549.339844 451.351563 549.339844 468.445313 C 549.339844 485.535156 560.808594 498.425781 576.019531 498.425781 C 591.226563 498.425781 602.699219 485.535156 602.699219 468.445313 C 602.699219 451.351563 591.226563 438.460938 576.019531 438.460938 Z M 576.019531 518.855469 C 547.523438 518.855469 526.035156 497.183594 526.035156 468.445313 C 526.035156 439.703125 547.523438 418.03125 576.019531 418.03125 C 604.511719 418.03125 626 439.703125 626 468.445313 C 626 497.183594 604.511719 518.855469 576.019531 518.855469 "/>
<path style=" stroke:none;fill-rule:nonzero;fill:rgb(34.498596%,34.899902%,35.699463%);fill-opacity:1;" d="M 141.667969 660.949219 C 135.585938 660.949219 128.898438 659.71875 125.585938 659.015625 L 123.039063 639.277344 C 130.054688 640.125 136.011719 640.523438 141.667969 640.523438 C 152.710938 640.523438 159.304688 633.605469 159.304688 622.023438 L 159.304688 582.132813 L 158.527344 581.804688 C 155.203125 580.398438 152.007813 578.46875 149.253906 576.207031 L 149.253906 561.5625 L 181.171875 561.5625 L 181.171875 622.023438 C 181.171875 646.035156 166.03125 660.949219 141.667969 660.949219 "/>
<path style=" stroke:none;fill-rule:nonzero;fill:rgb(34.498596%,34.899902%,35.699463%);fill-opacity:1;" d="M 233.050781 622.71875 L 258.996094 622.71875 L 246.105469 579.253906 Z M 270.015625 659.515625 L 264.703125 641.710938 L 227.351563 641.710938 L 222.039063 659.515625 L 199.648438 659.515625 L 227.105469 580.550781 L 226.222656 580.019531 C 223.996094 578.6875 222.171875 577.433594 220.664063 576.203125 L 220.664063 561.5625 L 258.261719 561.5625 L 292.402344 659.515625 L 270.015625 659.515625 "/>
<path style=" stroke:none;fill-rule:nonzero;fill:rgb(34.498596%,34.899902%,35.699463%);fill-opacity:1;" d="M 353.828125 660.949219 C 324.433594 660.949219 302.265625 639.277344 302.265625 610.539063 C 302.265625 581.796875 324.371094 560.128906 353.683594 560.128906 C 364.886719 560.128906 377.4375 563.621094 386.648438 569.273438 L 384.265625 592.039063 L 367.808594 592.039063 C 366.734375 588.765625 365.914063 585.90625 365.414063 582.90625 L 365.285156 582.140625 L 364.542969 581.90625 C 361.703125 581.011719 358.679688 580.554688 355.550781 580.554688 C 338.175781 580.554688 325.566406 593.164063 325.566406 610.539063 C 325.566406 627.910156 338.175781 640.523438 355.550781 640.523438 C 362.988281 640.523438 371.511719 638.359375 379.148438 634.558594 L 386.007813 651.839844 C 378.085938 657.074219 364.488281 660.949219 353.828125 660.949219 "/>
<path style=" stroke:none;fill-rule:nonzero;fill:rgb(34.498596%,34.899902%,35.699463%);fill-opacity:1;" d="M 437.386719 659.515625 L 437.386719 580.554688 L 422.0625 580.554688 L 421.820313 581.519531 C 420.839844 585.445313 419.648438 588.8125 418.097656 592.039063 L 404.941406 592.039063 L 404.941406 561.5625 L 491.695313 561.5625 L 491.695313 592.039063 L 478.398438 592.039063 C 476.851563 588.816406 475.660156 585.449219 474.675781 581.519531 L 474.433594 580.554688 L 459.253906 580.554688 L 459.253906 659.515625 L 437.386719 659.515625 "/>
<path style=" stroke:none;fill-rule:nonzero;fill:rgb(34.498596%,34.899902%,35.699463%);fill-opacity:1;" d="M 554.621094 580.554688 C 539.410156 580.554688 527.941406 593.445313 527.941406 610.539063 C 527.941406 627.632813 539.410156 640.523438 554.621094 640.523438 C 569.828125 640.523438 581.300781 627.632813 581.300781 610.539063 C 581.300781 593.445313 569.828125 580.554688 554.621094 580.554688 Z M 554.621094 660.949219 C 526.125 660.949219 504.640625 639.277344 504.640625 610.539063 C 504.640625 581.796875 526.125 560.128906 554.621094 560.128906 C 583.113281 560.128906 604.601563 581.796875 604.601563 610.539063 C 604.601563 639.277344 583.113281 660.949219 554.621094 660.949219 "/>
</g>
</svg>
